<mxfile host="65bd71144e" pages="2">
    <diagram name="Page-1" id="10a91c8b-09ff-31b1-d368-03940ed4cc9e">
        <mxGraphModel dx="1064" dy="530" grid="1" gridSize="10" guides="1" tooltips="1" connect="1" arrows="1" fold="1" page="1" pageScale="1" pageWidth="1100" pageHeight="850" background="none" math="0" shadow="0">
            <root>
                <mxCell id="0"/>
                <mxCell id="1" parent="0"/>
                <mxCell id="62893188c0fa7362-1" value="Noeud" style="whiteSpace=wrap;html=1;rounded=1;shadow=1;labelBackgroundColor=none;strokeWidth=1;fontFamily=Verdana;fontSize=36;align=center;" parent="1" vertex="1">
                    <mxGeometry x="440" y="170" width="180" height="60" as="geometry"/>
                </mxCell>
                <mxCell id="NMCuKZQwx3a8jJgIlKHc-2" value="Noeud" style="whiteSpace=wrap;html=1;rounded=1;shadow=1;labelBackgroundColor=none;strokeWidth=1;fontFamily=Verdana;fontSize=36;align=center;" parent="1" vertex="1">
                    <mxGeometry x="280" y="320" width="180" height="60" as="geometry"/>
                </mxCell>
                <mxCell id="NMCuKZQwx3a8jJgIlKHc-3" value="" style="endArrow=classic;html=1;rounded=0;fontSize=36;strokeWidth=7;" parent="1" source="62893188c0fa7362-1" target="NMCuKZQwx3a8jJgIlKHc-2" edge="1">
                    <mxGeometry width="50" height="50" relative="1" as="geometry">
                        <mxPoint x="540" y="490" as="sourcePoint"/>
                        <mxPoint x="590" y="440" as="targetPoint"/>
                    </mxGeometry>
                </mxCell>
                <mxCell id="NMCuKZQwx3a8jJgIlKHc-17" value="" style="edgeStyle=orthogonalEdgeStyle;rounded=0;orthogonalLoop=1;jettySize=auto;html=1;fontSize=36;strokeWidth=7;" parent="1" source="NMCuKZQwx3a8jJgIlKHc-4" target="NMCuKZQwx3a8jJgIlKHc-16" edge="1">
                    <mxGeometry relative="1" as="geometry"/>
                </mxCell>
                <mxCell id="NMCuKZQwx3a8jJgIlKHc-4" value="Noeud" style="whiteSpace=wrap;html=1;rounded=1;shadow=1;labelBackgroundColor=none;strokeWidth=1;fontFamily=Verdana;fontSize=36;align=center;" parent="1" vertex="1">
                    <mxGeometry x="600" y="320" width="180" height="60" as="geometry"/>
                </mxCell>
                <mxCell id="NMCuKZQwx3a8jJgIlKHc-5" value="" style="endArrow=classic;html=1;rounded=0;fontSize=36;strokeWidth=7;" parent="1" source="62893188c0fa7362-1" target="NMCuKZQwx3a8jJgIlKHc-4" edge="1">
                    <mxGeometry width="50" height="50" relative="1" as="geometry">
                        <mxPoint x="488.0000000000002" y="239.99999999999977" as="sourcePoint"/>
                        <mxPoint x="332" y="330" as="targetPoint"/>
                    </mxGeometry>
                </mxCell>
                <mxCell id="NMCuKZQwx3a8jJgIlKHc-6" value="Parent" style="text;html=1;strokeColor=none;fillColor=none;align=center;verticalAlign=middle;whiteSpace=wrap;rounded=0;fontSize=36;fontStyle=2" parent="1" vertex="1">
                    <mxGeometry x="300" y="185" width="60" height="30" as="geometry"/>
                </mxCell>
                <mxCell id="NMCuKZQwx3a8jJgIlKHc-12" value="" style="endArrow=classic;html=1;rounded=0;fontSize=36;strokeWidth=7;" parent="1" source="NMCuKZQwx3a8jJgIlKHc-2" target="NMCuKZQwx3a8jJgIlKHc-15" edge="1">
                    <mxGeometry width="50" height="50" relative="1" as="geometry">
                        <mxPoint x="342" y="379.9999999999998" as="sourcePoint"/>
                        <mxPoint x="430" y="590" as="targetPoint"/>
                    </mxGeometry>
                </mxCell>
                <mxCell id="NMCuKZQwx3a8jJgIlKHc-13" value="" style="endArrow=classic;html=1;rounded=0;fontSize=36;strokeWidth=7;" parent="1" source="NMCuKZQwx3a8jJgIlKHc-2" target="NMCuKZQwx3a8jJgIlKHc-14" edge="1">
                    <mxGeometry width="50" height="50" relative="1" as="geometry">
                        <mxPoint x="398" y="379.9999999999998" as="sourcePoint"/>
                        <mxPoint x="172" y="480" as="targetPoint"/>
                    </mxGeometry>
                </mxCell>
                <mxCell id="NMCuKZQwx3a8jJgIlKHc-14" value="Noeud" style="whiteSpace=wrap;html=1;rounded=1;shadow=1;labelBackgroundColor=none;strokeWidth=1;fontFamily=Verdana;fontSize=36;align=center;" parent="1" vertex="1">
                    <mxGeometry x="370" y="470" width="180" height="60" as="geometry"/>
                </mxCell>
                <mxCell id="NMCuKZQwx3a8jJgIlKHc-15" value="Noeud" style="whiteSpace=wrap;html=1;rounded=1;shadow=1;labelBackgroundColor=none;strokeWidth=1;fontFamily=Verdana;fontSize=36;align=center;" parent="1" vertex="1">
                    <mxGeometry x="170" y="470" width="180" height="60" as="geometry"/>
                </mxCell>
                <mxCell id="NMCuKZQwx3a8jJgIlKHc-16" value="Noeud" style="whiteSpace=wrap;html=1;rounded=1;shadow=1;labelBackgroundColor=none;strokeWidth=1;fontFamily=Verdana;fontSize=36;align=center;" parent="1" vertex="1">
                    <mxGeometry x="600" y="470" width="180" height="60" as="geometry"/>
                </mxCell>
                <mxCell id="NMCuKZQwx3a8jJgIlKHc-18" value="Enfant" style="text;html=1;strokeColor=none;fillColor=none;align=center;verticalAlign=middle;whiteSpace=wrap;rounded=0;fontSize=36;fontStyle=2" parent="1" vertex="1">
                    <mxGeometry x="120" y="335" width="60" height="30" as="geometry"/>
                </mxCell>
            </root>
        </mxGraphModel>
    </diagram>
    <diagram id="XkkVLX_O4RZ2hKzQYU5u" name="Page-2">
        <mxGraphModel dx="1064" dy="530" grid="1" gridSize="10" guides="1" tooltips="1" connect="1" arrows="1" fold="1" page="1" pageScale="1" pageWidth="850" pageHeight="850" math="0" shadow="0">
            <root>
                <mxCell id="YLdCtm05gTd4jsqX1Oal-0"/>
                <mxCell id="YLdCtm05gTd4jsqX1Oal-1" parent="YLdCtm05gTd4jsqX1Oal-0"/>
                <mxCell id="YLdCtm05gTd4jsqX1Oal-2" value="Player" style="whiteSpace=wrap;html=1;rounded=1;shadow=1;labelBackgroundColor=none;strokeWidth=1;fontFamily=Verdana;fontSize=36;align=center;" parent="YLdCtm05gTd4jsqX1Oal-1" vertex="1">
                    <mxGeometry x="545" y="50" width="370" height="60" as="geometry"/>
                </mxCell>
                <mxCell id="YLdCtm05gTd4jsqX1Oal-3" value="Sprite2D" style="whiteSpace=wrap;html=1;rounded=1;shadow=1;labelBackgroundColor=none;strokeWidth=1;fontFamily=Verdana;fontSize=24;align=center;" parent="YLdCtm05gTd4jsqX1Oal-1" vertex="1">
                    <mxGeometry x="210" y="230" width="140" height="60" as="geometry"/>
                </mxCell>
                <mxCell id="YLdCtm05gTd4jsqX1Oal-4" value="" style="endArrow=classic;html=1;rounded=0;fontSize=36;strokeWidth=7;" parent="YLdCtm05gTd4jsqX1Oal-1" source="YLdCtm05gTd4jsqX1Oal-2" target="YLdCtm05gTd4jsqX1Oal-3" edge="1">
                    <mxGeometry width="50" height="50" relative="1" as="geometry">
                        <mxPoint x="720" y="490" as="sourcePoint"/>
                        <mxPoint x="770" y="440" as="targetPoint"/>
                    </mxGeometry>
                </mxCell>
                <mxCell id="YLdCtm05gTd4jsqX1Oal-6" value="CollisionShape2D" style="whiteSpace=wrap;html=1;rounded=1;shadow=1;labelBackgroundColor=none;strokeWidth=1;fontFamily=Verdana;fontSize=24;align=center;" parent="YLdCtm05gTd4jsqX1Oal-1" vertex="1">
                    <mxGeometry x="370" y="230" width="235" height="60" as="geometry"/>
                </mxCell>
                <mxCell id="YLdCtm05gTd4jsqX1Oal-7" value="" style="endArrow=classic;html=1;rounded=0;fontSize=36;strokeWidth=7;" parent="YLdCtm05gTd4jsqX1Oal-1" source="YLdCtm05gTd4jsqX1Oal-2" target="YLdCtm05gTd4jsqX1Oal-6" edge="1">
                    <mxGeometry width="50" height="50" relative="1" as="geometry">
                        <mxPoint x="668.0000000000002" y="239.99999999999977" as="sourcePoint"/>
                        <mxPoint x="512" y="330" as="targetPoint"/>
                    </mxGeometry>
                </mxCell>
                <mxCell id="YLdCtm05gTd4jsqX1Oal-8" value="Parents" style="text;html=1;strokeColor=none;fillColor=none;align=center;verticalAlign=middle;whiteSpace=wrap;rounded=0;fontSize=36;fontStyle=2" parent="YLdCtm05gTd4jsqX1Oal-1" vertex="1">
                    <mxGeometry x="70" y="65" width="60" height="30" as="geometry"/>
                </mxCell>
                <mxCell id="YLdCtm05gTd4jsqX1Oal-11" value="AnimationTree" style="whiteSpace=wrap;html=1;rounded=1;shadow=1;labelBackgroundColor=none;strokeWidth=1;fontFamily=Verdana;fontSize=24;align=center;" parent="YLdCtm05gTd4jsqX1Oal-1" vertex="1">
                    <mxGeometry x="850" y="230" width="190" height="60" as="geometry"/>
                </mxCell>
                <mxCell id="YLdCtm05gTd4jsqX1Oal-12" value="Camera2D" style="whiteSpace=wrap;html=1;rounded=1;shadow=1;labelBackgroundColor=none;strokeWidth=1;fontFamily=Verdana;fontSize=24;align=center;" parent="YLdCtm05gTd4jsqX1Oal-1" vertex="1">
                    <mxGeometry x="1050" y="230" width="150" height="60" as="geometry"/>
                </mxCell>
                <mxCell id="YLdCtm05gTd4jsqX1Oal-13" value="AnimationPlayer" style="whiteSpace=wrap;html=1;rounded=1;shadow=1;labelBackgroundColor=none;strokeWidth=1;fontFamily=Verdana;fontSize=24;align=center;" parent="YLdCtm05gTd4jsqX1Oal-1" vertex="1">
                    <mxGeometry x="620" y="230" width="220" height="60" as="geometry"/>
                </mxCell>
                <mxCell id="YLdCtm05gTd4jsqX1Oal-14" value="Enfants" style="text;html=1;strokeColor=none;fillColor=none;align=center;verticalAlign=middle;whiteSpace=wrap;rounded=0;fontSize=36;fontStyle=2" parent="YLdCtm05gTd4jsqX1Oal-1" vertex="1">
                    <mxGeometry x="30" y="245" width="130" height="30" as="geometry"/>
                </mxCell>
                <mxCell id="YLdCtm05gTd4jsqX1Oal-15" value="" style="endArrow=classic;html=1;rounded=0;fontSize=36;strokeWidth=7;" parent="YLdCtm05gTd4jsqX1Oal-1" source="YLdCtm05gTd4jsqX1Oal-2" target="YLdCtm05gTd4jsqX1Oal-13" edge="1">
                    <mxGeometry width="50" height="50" relative="1" as="geometry">
                        <mxPoint x="600" y="120" as="sourcePoint"/>
                        <mxPoint x="540" y="240" as="targetPoint"/>
                    </mxGeometry>
                </mxCell>
                <mxCell id="YLdCtm05gTd4jsqX1Oal-16" value="" style="endArrow=classic;html=1;rounded=0;fontSize=36;strokeWidth=7;" parent="YLdCtm05gTd4jsqX1Oal-1" source="YLdCtm05gTd4jsqX1Oal-2" target="YLdCtm05gTd4jsqX1Oal-11" edge="1">
                    <mxGeometry width="50" height="50" relative="1" as="geometry">
                        <mxPoint x="610" y="130" as="sourcePoint"/>
                        <mxPoint x="550" y="250" as="targetPoint"/>
                    </mxGeometry>
                </mxCell>
                <mxCell id="YLdCtm05gTd4jsqX1Oal-17" value="" style="endArrow=classic;html=1;rounded=0;fontSize=36;strokeWidth=7;" parent="YLdCtm05gTd4jsqX1Oal-1" source="YLdCtm05gTd4jsqX1Oal-2" target="YLdCtm05gTd4jsqX1Oal-12" edge="1">
                    <mxGeometry width="50" height="50" relative="1" as="geometry">
                        <mxPoint x="680" y="150" as="sourcePoint"/>
                        <mxPoint x="620" y="270" as="targetPoint"/>
                    </mxGeometry>
                </mxCell>
            </root>
        </mxGraphModel>
    </diagram>
</mxfile>